<svg width="202" height="64" viewBox="0 0 202 64" fill="none" xmlns="http://www.w3.org/2000/svg">
<path d="M6.048 31.7041V38.2321H13.728V41.2081H6.048V48.0241H14.688V51.0001H2.4V28.7281H14.688V31.7041H6.048ZM17.9653 42.1681C17.9653 40.3547 18.3279 38.7654 19.0533 37.4001C19.7999 36.0134 20.8239 34.9467 22.1253 34.2001C23.4266 33.4534 24.9199 33.0801 26.6053 33.0801C28.7386 33.0801 30.4986 33.5921 31.8853 34.6161C33.2933 35.6187 34.2426 37.0587 34.7333 38.9361H30.7973C30.4773 38.0614 29.9653 37.3787 29.2613 36.8881C28.5573 36.3974 27.6719 36.1521 26.6053 36.1521C25.1119 36.1521 23.9173 36.6854 23.0213 37.7521C22.1466 38.7974 21.7093 40.2694 21.7093 42.1681C21.7093 44.0667 22.1466 45.5494 23.0213 46.6161C23.9173 47.6827 25.1119 48.2161 26.6053 48.2161C28.7173 48.2161 30.1146 47.2881 30.7973 45.4321H34.7333C34.2213 47.2241 33.2613 48.6534 31.8533 49.7201C30.4453 50.7654 28.6959 51.2881 26.6053 51.2881C24.9199 51.2881 23.4266 50.9147 22.1253 50.1681C20.8239 49.4001 19.7999 48.3334 19.0533 46.9681C18.3279 45.5814 17.9653 43.9814 17.9653 42.1681ZM46.0168 51.2881C44.3528 51.2881 42.8488 50.9147 41.5048 50.1681C40.1608 49.4001 39.1048 48.3334 38.3368 46.9681C37.5688 45.5814 37.1848 43.9814 37.1848 42.1681C37.1848 40.3761 37.5794 38.7867 38.3688 37.4001C39.1581 36.0134 40.2354 34.9467 41.6008 34.2001C42.9661 33.4534 44.4914 33.0801 46.1768 33.0801C47.8621 33.0801 49.3874 33.4534 50.7528 34.2001C52.1181 34.9467 53.1954 36.0134 53.9848 37.4001C54.7741 38.7867 55.1688 40.3761 55.1688 42.1681C55.1688 43.9601 54.7634 45.5494 53.9528 46.9361C53.1421 48.3227 52.0328 49.4001 50.6248 50.1681C49.2381 50.9147 47.7021 51.2881 46.0168 51.2881ZM46.0168 48.1201C46.9554 48.1201 47.8301 47.8961 48.6408 47.4481C49.4728 47.0001 50.1448 46.3281 50.6568 45.4321C51.1688 44.5361 51.4248 43.4481 51.4248 42.1681C51.4248 40.8881 51.1794 39.8107 50.6888 38.9361C50.1981 38.0401 49.5474 37.3681 48.7368 36.9201C47.9261 36.4721 47.0514 36.2481 46.1128 36.2481C45.1741 36.2481 44.2994 36.4721 43.4888 36.9201C42.6994 37.3681 42.0701 38.0401 41.6008 38.9361C41.1314 39.8107 40.8968 40.8881 40.8968 42.1681C40.8968 44.0667 41.3768 45.5387 42.3368 46.5841C43.3181 47.6081 44.5448 48.1201 46.0168 48.1201Z" fill="#86C33F"/>
<path d="M57.559 39.8321C57.559 37.6561 58.0603 35.7041 59.063 33.9761C60.087 32.2481 61.463 30.9041 63.191 29.9441C64.9403 28.9627 66.8497 28.4721 68.919 28.4721C71.287 28.4721 73.3883 29.0587 75.223 30.2321C77.079 31.3841 78.423 33.0267 79.255 35.1601H74.871C74.295 33.9867 73.495 33.1121 72.471 32.5361C71.447 31.9601 70.263 31.6721 68.919 31.6721C67.447 31.6721 66.135 32.0027 64.983 32.6641C63.831 33.3254 62.9243 34.2747 62.263 35.5121C61.623 36.7494 61.303 38.1894 61.303 39.8321C61.303 41.4747 61.623 42.9147 62.263 44.1521C62.9243 45.3894 63.831 46.3494 64.983 47.0321C66.135 47.6934 67.447 48.0241 68.919 48.0241C70.263 48.0241 71.447 47.7361 72.471 47.1601C73.495 46.5841 74.295 45.7094 74.871 44.5361H79.255C78.423 46.6694 77.079 48.3121 75.223 49.4641C73.3883 50.6161 71.287 51.1921 68.919 51.1921C66.8283 51.1921 64.919 50.7121 63.191 49.7521C61.463 48.7707 60.087 47.4161 59.063 45.6881C58.0603 43.9601 57.559 42.0081 57.559 39.8321ZM91.173 51.2881C89.509 51.2881 88.005 50.9147 86.661 50.1681C85.317 49.4001 84.261 48.3334 83.493 46.9681C82.725 45.5814 82.341 43.9814 82.341 42.1681C82.341 40.3761 82.7357 38.7867 83.525 37.4001C84.3143 36.0134 85.3917 34.9467 86.757 34.2001C88.1223 33.4534 89.6477 33.0801 91.333 33.0801C93.0183 33.0801 94.5437 33.4534 95.909 34.2001C97.2743 34.9467 98.3517 36.0134 99.141 37.4001C99.9303 38.7867 100.325 40.3761 100.325 42.1681C100.325 43.9601 99.9197 45.5494 99.109 46.9361C98.2983 48.3227 97.189 49.4001 95.781 50.1681C94.3943 50.9147 92.8583 51.2881 91.173 51.2881ZM91.173 48.1201C92.1117 48.1201 92.9863 47.8961 93.797 47.4481C94.629 47.0001 95.301 46.3281 95.813 45.4321C96.325 44.5361 96.581 43.4481 96.581 42.1681C96.581 40.8881 96.3357 39.8107 95.845 38.9361C95.3543 38.0401 94.7037 37.3681 93.893 36.9201C93.0823 36.4721 92.2077 36.2481 91.269 36.2481C90.3303 36.2481 89.4557 36.4721 88.645 36.9201C87.8557 37.3681 87.2263 38.0401 86.757 38.9361C86.2877 39.8107 86.053 40.8881 86.053 42.1681C86.053 44.0667 86.533 45.5387 87.493 46.5841C88.4743 47.6081 89.701 48.1201 91.173 48.1201ZM112.827 33.0801C114.214 33.0801 115.451 33.3681 116.539 33.9441C117.649 34.5201 118.513 35.3734 119.131 36.5041C119.75 37.6347 120.059 39.0001 120.059 40.6001V51.0001H116.443V41.1441C116.443 39.5654 116.049 38.3601 115.259 37.5281C114.47 36.6747 113.393 36.2481 112.027 36.2481C110.662 36.2481 109.574 36.6747 108.763 37.5281C107.974 38.3601 107.579 39.5654 107.579 41.1441V51.0001H103.931V33.3681H107.579V35.3841C108.177 34.6587 108.934 34.0934 109.851 33.6881C110.79 33.2827 111.782 33.0801 112.827 33.0801ZM133.609 33.0801C134.995 33.0801 136.233 33.3681 137.321 33.9441C138.43 34.5201 139.294 35.3734 139.913 36.5041C140.531 37.6347 140.841 39.0001 140.841 40.6001V51.0001H137.225V41.1441C137.225 39.5654 136.83 38.3601 136.041 37.5281C135.251 36.6747 134.174 36.2481 132.809 36.2481C131.443 36.2481 130.355 36.6747 129.545 37.5281C128.755 38.3601 128.361 39.5654 128.361 41.1441V51.0001H124.713V33.3681H128.361V35.3841C128.958 34.6587 129.715 34.0934 130.633 33.6881C131.571 33.2827 132.563 33.0801 133.609 33.0801ZM161.654 41.7521C161.654 42.4134 161.611 43.0107 161.526 43.5441H148.054C148.16 44.9521 148.683 46.0827 149.622 46.9361C150.56 47.7894 151.712 48.2161 153.078 48.2161C155.04 48.2161 156.427 47.3947 157.238 45.7521H161.174C160.64 47.3734 159.67 48.7067 158.262 49.7521C156.875 50.7761 155.147 51.2881 153.078 51.2881C151.392 51.2881 149.878 50.9147 148.534 50.1681C147.211 49.4001 146.166 48.3334 145.398 46.9681C144.651 45.5814 144.278 43.9814 144.278 42.1681C144.278 40.3547 144.64 38.7654 145.366 37.4001C146.112 36.0134 147.147 34.9467 148.47 34.2001C149.814 33.4534 151.35 33.0801 153.078 33.0801C154.742 33.0801 156.224 33.4427 157.526 34.1681C158.827 34.8934 159.84 35.9174 160.566 37.2401C161.291 38.5414 161.654 40.0454 161.654 41.7521ZM157.846 40.6001C157.824 39.2561 157.344 38.1787 156.406 37.3681C155.467 36.5574 154.304 36.1521 152.918 36.1521C151.659 36.1521 150.582 36.5574 149.686 37.3681C148.79 38.1574 148.256 39.2347 148.086 40.6001H157.846ZM164.028 42.1681C164.028 40.3547 164.39 38.7654 165.116 37.4001C165.862 36.0134 166.886 34.9467 168.188 34.2001C169.489 33.4534 170.982 33.0801 172.668 33.0801C174.801 33.0801 176.561 33.5921 177.948 34.6161C179.356 35.6187 180.305 37.0587 180.796 38.9361H176.86C176.54 38.0614 176.028 37.3787 175.324 36.8881C174.62 36.3974 173.734 36.1521 172.668 36.1521C171.174 36.1521 169.98 36.6854 169.084 37.7521C168.209 38.7974 167.772 40.2694 167.772 42.1681C167.772 44.0667 168.209 45.5494 169.084 46.6161C169.98 47.6827 171.174 48.2161 172.668 48.2161C174.78 48.2161 176.177 47.2881 176.86 45.4321H180.796C180.284 47.2241 179.324 48.6534 177.916 49.7201C176.508 50.7654 174.758 51.2881 172.668 51.2881C170.982 51.2881 169.489 50.9147 168.188 50.1681C166.886 49.4001 165.862 48.3334 165.116 46.9681C164.39 45.5814 164.028 43.9814 164.028 42.1681ZM188.687 36.3441V46.1041C188.687 46.7654 188.837 47.2454 189.135 47.5441C189.455 47.8214 189.989 47.9601 190.735 47.9601H192.975V51.0001H190.095C188.453 51.0001 187.194 50.6161 186.319 49.8481C185.445 49.0801 185.007 47.8321 185.007 46.1041V36.3441H182.927V33.3681H185.007V28.9841H188.687V33.3681H192.975V36.3441H188.687ZM197.81 51.2241C197.148 51.2241 196.594 51.0001 196.146 50.5521C195.698 50.1041 195.474 49.5494 195.474 48.8881C195.474 48.2267 195.698 47.6721 196.146 47.2241C196.594 46.7761 197.148 46.5521 197.81 46.5521C198.45 46.5521 198.994 46.7761 199.442 47.2241C199.89 47.6721 200.114 48.2267 200.114 48.8881C200.114 49.5494 199.89 50.1041 199.442 50.5521C198.994 51.0001 198.45 51.2241 197.81 51.2241Z" fill="#181818"/>
<mask id="mask0_1_33" style="mask-type:luminance" maskUnits="userSpaceOnUse" x="77" y="0" width="43" height="32">
<path d="M113.553 0L119.299 21.8964L82.7452 31.4873L77 9.59092L113.553 0Z" fill="white"/>
</mask>
<g mask="url(#mask0_1_33)">
<mask id="mask1_1_33" style="mask-type:luminance" maskUnits="userSpaceOnUse" x="80" y="4" width="40" height="19">
<path d="M119.225 21.8199C116.634 21.2304 115.086 17.6723 114.605 16.5386C114.168 15.5019 113.669 14.494 113.095 13.5341C110.306 8.87197 106.861 6.65332 103.823 5.64115C103.821 5.64155 100.093 3.92918 94.5612 5.05674C90.871 5.75992 87.6873 7.63832 85.2495 10.288C84.8103 10.6437 84.7997 10.7956 84.7997 10.7956C84.5523 11.0851 84.314 11.382 84.0849 11.6869L84.0627 11.6566C83.6172 12.2667 83.208 12.9079 82.8331 13.5738C82.4576 14.2203 82.1164 14.8908 81.8121 15.5849L81.8419 15.6022C81.0396 17.5092 80.5126 19.5766 80.2974 21.7296C81.413 15.6706 85.0481 10.4997 90.3111 7.95491C90.4846 7.86091 90.6602 7.7688 90.8367 7.682C90.999 7.6204 91.1646 7.56101 91.3318 7.50178C91.977 7.27606 92.6499 7.06637 93.3455 6.88876C94.7079 6.53866 96.1281 6.58877 97.4774 7.00291C97.4774 7.00291 97.5247 7.01567 97.6157 7.04641C97.9539 7.15767 98.2898 7.29105 98.6175 7.44803C98.6243 7.45299 98.6407 7.46097 98.6641 7.47506C98.7776 7.52874 98.8985 7.58783 99.0256 7.65387C100.913 8.62991 104.081 10.9532 106.999 15.396C109.826 19.6997 113.029 21.003 115.054 21.3717C115.56 21.4635 115.994 21.4976 116.329 21.5054C116.814 21.5162 117.094 21.4729 117.094 21.4729C117.094 21.4729 116.823 21.547 116.355 21.5943C116.033 21.6266 115.619 21.6476 115.134 21.6258C113.006 21.5256 109.517 20.5894 106.556 16.1515C105.24 14.1782 103.669 12.4214 101.869 10.9856C101.323 10.5502 100.71 10.0846 100.021 9.59472L97.2414 7.7416C101.714 21.225 110.374 22.8416 115.385 22.5224C115.809 22.496 116.207 22.4547 116.574 22.4058C118.203 22.1898 119.225 21.8199 119.225 21.8199Z" fill="white"/>
</mask>
<g mask="url(#mask1_1_33)">
<mask id="mask2_1_33" style="mask-type:luminance" maskUnits="userSpaceOnUse" x="80" y="4" width="40" height="19">
<path d="M119.225 21.8199C116.634 21.2304 115.086 17.6723 114.605 16.5386C114.168 15.5019 113.669 14.494 113.095 13.5341C110.306 8.87197 106.861 6.65332 103.823 5.64115C103.821 5.64155 100.093 3.92918 94.5612 5.05674C90.871 5.75992 87.6873 7.63832 85.2495 10.288C84.8103 10.6437 84.7997 10.7956 84.7997 10.7956C84.5523 11.0851 84.314 11.382 84.0849 11.6869L84.0627 11.6566C83.6172 12.2667 83.208 12.9079 82.8331 13.5738C82.4576 14.2203 82.1164 14.8908 81.8121 15.5849L81.8419 15.6022C81.0396 17.5092 80.5126 19.5766 80.2974 21.7296C81.413 15.6706 85.0481 10.4997 90.3111 7.95491C90.4846 7.86091 90.6602 7.7688 90.8367 7.682C90.999 7.6204 91.1646 7.56101 91.3318 7.50178C91.977 7.27606 92.6499 7.06637 93.3455 6.88876C94.7079 6.53866 96.1281 6.58877 97.4774 7.00291C97.4774 7.00291 97.5247 7.01567 97.6157 7.04641C97.9539 7.15767 98.2898 7.29105 98.6175 7.44803C98.6243 7.45299 98.6407 7.46097 98.6641 7.47506C98.7776 7.52874 98.8985 7.58783 99.0256 7.65387C100.913 8.62991 104.081 10.9532 106.999 15.396C109.826 19.6997 113.029 21.003 115.054 21.3717C115.56 21.4635 115.994 21.4976 116.329 21.5054C116.814 21.5162 117.094 21.4729 117.094 21.4729C117.094 21.4729 116.823 21.547 116.355 21.5943C116.033 21.6266 115.619 21.6476 115.134 21.6258C113.006 21.5256 109.517 20.5894 106.556 16.1515C105.24 14.1782 103.669 12.4214 101.869 10.9856C101.323 10.5502 100.71 10.0846 100.021 9.59472L97.2414 7.7416C101.714 21.225 110.374 22.8416 115.385 22.5224C115.809 22.496 116.207 22.4547 116.574 22.4058C118.203 22.1898 119.225 21.8199 119.225 21.8199Z" fill="white"/>
</mask>
<g mask="url(#mask2_1_33)">
<path d="M113.456 -0.165894L77.0582 9.38433L82.8519 31.4656L119.25 21.9154L113.456 -0.165894Z" fill="url(#paint0_linear_1_33)"/>
</g>
</g>
</g>
<defs>
<linearGradient id="paint0_linear_1_33" x1="95.2571" y1="4.60906" x2="101.051" y2="26.6906" gradientUnits="userSpaceOnUse">
<stop stop-color="#7BCB29"/>
<stop offset="0.015625" stop-color="#7BCB29"/>
<stop offset="0.03125" stop-color="#7ACA2A"/>
<stop offset="0.046875" stop-color="#79CA2A"/>
<stop offset="0.0625" stop-color="#78CA2A"/>
<stop offset="0.078125" stop-color="#78CA2B"/>
<stop offset="0.09375" stop-color="#77C92B"/>
<stop offset="0.109375" stop-color="#76C92B"/>
<stop offset="0.125" stop-color="#75C92B"/>
<stop offset="0.140625" stop-color="#74C92C"/>
<stop offset="0.15625" stop-color="#73C82C"/>
<stop offset="0.171875" stop-color="#72C82C"/>
<stop offset="0.1875" stop-color="#71C82C"/>
<stop offset="0.203125" stop-color="#70C82D"/>
<stop offset="0.21875" stop-color="#70C72D"/>
<stop offset="0.234375" stop-color="#6FC72D"/>
<stop offset="0.25" stop-color="#6EC72E"/>
<stop offset="0.265625" stop-color="#6DC62E"/>
<stop offset="0.28125" stop-color="#6CC62E"/>
<stop offset="0.296875" stop-color="#6BC62E"/>
<stop offset="0.3125" stop-color="#6AC62F"/>
<stop offset="0.328125" stop-color="#69C52F"/>
<stop offset="0.34375" stop-color="#68C52F"/>
<stop offset="0.359375" stop-color="#68C530"/>
<stop offset="0.375" stop-color="#67C530"/>
<stop offset="0.390625" stop-color="#66C430"/>
<stop offset="0.40625" stop-color="#65C430"/>
<stop offset="0.421875" stop-color="#64C431"/>
<stop offset="0.4375" stop-color="#63C431"/>
<stop offset="0.453125" stop-color="#62C331"/>
<stop offset="0.46875" stop-color="#61C331"/>
<stop offset="0.484375" stop-color="#60C332"/>
<stop offset="0.5" stop-color="#60C232"/>
<stop offset="0.515625" stop-color="#5FC232"/>
<stop offset="0.53125" stop-color="#5EC233"/>
<stop offset="0.546875" stop-color="#5DC233"/>
<stop offset="0.5625" stop-color="#5CC133"/>
<stop offset="0.578125" stop-color="#5BC133"/>
<stop offset="0.59375" stop-color="#5AC134"/>
<stop offset="0.609375" stop-color="#59C134"/>
<stop offset="0.625" stop-color="#58C034"/>
<stop offset="0.640625" stop-color="#58C035"/>
<stop offset="0.65625" stop-color="#57C035"/>
<stop offset="0.671875" stop-color="#56C035"/>
<stop offset="0.6875" stop-color="#55BF35"/>
<stop offset="0.703125" stop-color="#54BF36"/>
<stop offset="0.71875" stop-color="#53BF36"/>
<stop offset="0.734375" stop-color="#52BF36"/>
<stop offset="0.75" stop-color="#51BE36"/>
<stop offset="0.765625" stop-color="#51BE37"/>
<stop offset="0.78125" stop-color="#50BE37"/>
<stop offset="0.796875" stop-color="#4FBD37"/>
<stop offset="0.8125" stop-color="#4EBD38"/>
<stop offset="0.828125" stop-color="#4DBD38"/>
<stop offset="0.84375" stop-color="#4CBD38"/>
<stop offset="0.859375" stop-color="#4BBC38"/>
<stop offset="0.875" stop-color="#4ABC39"/>
<stop offset="0.890625" stop-color="#49BC39"/>
<stop offset="0.90625" stop-color="#49BC39"/>
<stop offset="0.921875" stop-color="#48BB3A"/>
<stop offset="0.9375" stop-color="#47BB3A"/>
<stop offset="0.953125" stop-color="#46BB3A"/>
<stop offset="0.96875" stop-color="#45BB3A"/>
<stop offset="0.984375" stop-color="#44BA3B"/>
<stop offset="1" stop-color="#43BA3B"/>
</linearGradient>
</defs>
</svg>
