<svg width="43" height="32" viewBox="0 0 43 32" fill="none" xmlns="http://www.w3.org/2000/svg">
    <mask id="mask0_206_946" style="mask-type:luminance" maskUnits="userSpaceOnUse" x="3" y="4" width="40" height="19">
        <path d="M42.2249 21.8199C39.6333 21.2305 38.0854 17.6724 37.6051 16.5387C37.1673 15.5019 36.6684 14.494 36.0943 13.5341C33.3054 8.87203 29.8609 6.65338 26.8224 5.64121C26.8208 5.64162 23.093 3.92924 17.5609 5.0568C13.8707 5.75998 10.6871 7.63838 8.24926 10.2881C7.81009 10.6438 7.79944 10.7957 7.79944 10.7957C7.55204 11.0852 7.31374 11.3821 7.08467 11.687L7.06243 11.6566C6.617 12.2668 6.20771 12.908 5.8329 13.5739C5.45738 14.2203 5.11618 14.8909 4.81188 15.5849L4.84169 15.6023C4.03933 17.5093 3.51234 19.5766 3.29715 21.7296C4.41276 15.6706 8.0479 10.4998 13.3108 7.95497C13.4843 7.86097 13.66 7.76887 13.8365 7.68206C13.9988 7.62047 14.1643 7.56107 14.3316 7.50184C14.9767 7.27613 15.6496 7.06643 16.3453 6.88882C17.7076 6.53872 19.1278 6.58883 20.4772 7.00297C20.4772 7.00297 20.5245 7.01573 20.6154 7.04647C20.9537 7.15773 21.2895 7.29111 21.6173 7.44809C21.6241 7.45306 21.6404 7.46103 21.6639 7.47512C21.7774 7.5288 21.8983 7.58789 22.0254 7.65393C23.913 8.62997 27.0803 10.9533 29.9989 15.396C32.8256 19.6997 36.0288 21.0031 38.0541 21.3718C38.5602 21.4635 38.9936 21.4977 39.3288 21.5055C39.8137 21.5163 40.0933 21.473 40.0933 21.473C40.0933 21.473 39.8228 21.547 39.3549 21.5943C39.0329 21.6267 38.6184 21.6477 38.1334 21.6258C36.0062 21.5256 32.5166 20.5895 29.556 16.1516C28.24 14.1782 26.669 12.4215 24.8688 10.9856C24.323 10.5502 23.7101 10.0846 23.021 9.59478L20.2412 7.74167C24.7133 21.2251 33.3733 22.8417 38.3852 22.5225C38.8086 22.496 39.2068 22.4548 39.5733 22.4058C41.2031 22.1899 42.2249 21.8199 42.2249 21.8199Z" fill="white"/>
    </mask>
    <g mask="url(#mask0_206_946)">
        <mask id="mask1_206_946" style="mask-type:luminance" maskUnits="userSpaceOnUse" x="3" y="4" width="40" height="19">
            <path d="M42.2249 21.8199C39.6333 21.2305 38.0854 17.6724 37.6051 16.5387C37.1673 15.5019 36.6684 14.494 36.0943 13.5341C33.3054 8.87203 29.8609 6.65338 26.8224 5.64121C26.8208 5.64162 23.093 3.92924 17.5609 5.0568C13.8707 5.75998 10.6871 7.63838 8.24926 10.2881C7.81009 10.6438 7.79944 10.7957 7.79944 10.7957C7.55204 11.0852 7.31374 11.3821 7.08467 11.687L7.06243 11.6566C6.617 12.2668 6.20771 12.908 5.8329 13.5739C5.45738 14.2203 5.11618 14.8909 4.81188 15.5849L4.84169 15.6023C4.03933 17.5093 3.51234 19.5766 3.29715 21.7296C4.41276 15.6706 8.0479 10.4998 13.3108 7.95497C13.4843 7.86097 13.66 7.76887 13.8365 7.68206C13.9988 7.62047 14.1643 7.56107 14.3316 7.50184C14.9767 7.27613 15.6496 7.06643 16.3453 6.88882C17.7076 6.53872 19.1278 6.58883 20.4772 7.00297C20.4772 7.00297 20.5245 7.01573 20.6154 7.04647C20.9537 7.15773 21.2895 7.29111 21.6173 7.44809C21.6241 7.45306 21.6404 7.46103 21.6639 7.47512C21.7774 7.5288 21.8983 7.58789 22.0254 7.65393C23.913 8.62997 27.0803 10.9533 29.9989 15.396C32.8256 19.6997 36.0288 21.0031 38.0541 21.3718C38.5602 21.4635 38.9936 21.4977 39.3288 21.5055C39.8137 21.5163 40.0933 21.473 40.0933 21.473C40.0933 21.473 39.8228 21.547 39.3549 21.5943C39.0329 21.6267 38.6184 21.6477 38.1334 21.6258C36.0062 21.5256 32.5166 20.5895 29.556 16.1516C28.24 14.1782 26.669 12.4215 24.8688 10.9856C24.323 10.5502 23.7101 10.0846 23.021 9.59478L20.2412 7.74167C24.7133 21.2251 33.3733 22.8417 38.3852 22.5225C38.8086 22.496 39.2068 22.4548 39.5733 22.4058C41.2031 22.1899 42.2249 21.8199 42.2249 21.8199Z" fill="white"/>
        </mask>
        <g mask="url(#mask1_206_946)">
            <path d="M36.4561 -0.165771L0.0578535 9.38445L5.85157 31.4657L42.2498 21.9155L36.4561 -0.165771Z" fill="url(#paint0_linear_206_946)"/>
        </g>
    </g>
    <defs>
        <linearGradient id="paint0_linear_206_946" x1="18.2568" y1="4.60919" x2="24.0506" y2="26.6908" gradientUnits="userSpaceOnUse">
            <stop stop-color="#7BCB29"/>
            <stop offset="0.015625" stop-color="#7BCB29"/>
            <stop offset="0.03125" stop-color="#7ACA2A"/>
            <stop offset="0.046875" stop-color="#79CA2A"/>
            <stop offset="0.0625" stop-color="#78CA2A"/>
            <stop offset="0.078125" stop-color="#78CA2B"/>
            <stop offset="0.09375" stop-color="#77C92B"/>
            <stop offset="0.109375" stop-color="#76C92B"/>
            <stop offset="0.125" stop-color="#75C92B"/>
            <stop offset="0.140625" stop-color="#74C92C"/>
            <stop offset="0.15625" stop-color="#73C82C"/>
            <stop offset="0.171875" stop-color="#72C82C"/>
            <stop offset="0.1875" stop-color="#71C82C"/>
            <stop offset="0.203125" stop-color="#70C82D"/>
            <stop offset="0.21875" stop-color="#70C72D"/>
            <stop offset="0.234375" stop-color="#6FC72D"/>
            <stop offset="0.25" stop-color="#6EC72E"/>
            <stop offset="0.265625" stop-color="#6DC62E"/>
            <stop offset="0.28125" stop-color="#6CC62E"/>
            <stop offset="0.296875" stop-color="#6BC62E"/>
            <stop offset="0.3125" stop-color="#6AC62F"/>
            <stop offset="0.328125" stop-color="#69C52F"/>
            <stop offset="0.34375" stop-color="#68C52F"/>
            <stop offset="0.359375" stop-color="#68C530"/>
            <stop offset="0.375" stop-color="#67C530"/>
            <stop offset="0.390625" stop-color="#66C430"/>
            <stop offset="0.40625" stop-color="#65C430"/>
            <stop offset="0.421875" stop-color="#64C431"/>
            <stop offset="0.4375" stop-color="#63C431"/>
            <stop offset="0.453125" stop-color="#62C331"/>
            <stop offset="0.46875" stop-color="#61C331"/>
            <stop offset="0.484375" stop-color="#60C332"/>
            <stop offset="0.5" stop-color="#60C232"/>
            <stop offset="0.515625" stop-color="#5FC232"/>
            <stop offset="0.53125" stop-color="#5EC233"/>
            <stop offset="0.546875" stop-color="#5DC233"/>
            <stop offset="0.5625" stop-color="#5CC133"/>
            <stop offset="0.578125" stop-color="#5BC133"/>
            <stop offset="0.59375" stop-color="#5AC134"/>
            <stop offset="0.609375" stop-color="#59C134"/>
            <stop offset="0.625" stop-color="#58C034"/>
            <stop offset="0.640625" stop-color="#58C035"/>
            <stop offset="0.65625" stop-color="#57C035"/>
            <stop offset="0.671875" stop-color="#56C035"/>
            <stop offset="0.6875" stop-color="#55BF35"/>
            <stop offset="0.703125" stop-color="#54BF36"/>
            <stop offset="0.71875" stop-color="#53BF36"/>
            <stop offset="0.734375" stop-color="#52BF36"/>
            <stop offset="0.75" stop-color="#51BE36"/>
            <stop offset="0.765625" stop-color="#51BE37"/>
            <stop offset="0.78125" stop-color="#50BE37"/>
            <stop offset="0.796875" stop-color="#4FBD37"/>
            <stop offset="0.8125" stop-color="#4EBD38"/>
            <stop offset="0.828125" stop-color="#4DBD38"/>
            <stop offset="0.84375" stop-color="#4CBD38"/>
            <stop offset="0.859375" stop-color="#4BBC38"/>
            <stop offset="0.875" stop-color="#4ABC39"/>
            <stop offset="0.890625" stop-color="#49BC39"/>
            <stop offset="0.90625" stop-color="#49BC39"/>
            <stop offset="0.921875" stop-color="#48BB3A"/>
            <stop offset="0.9375" stop-color="#47BB3A"/>
            <stop offset="0.953125" stop-color="#46BB3A"/>
            <stop offset="0.96875" stop-color="#45BB3A"/>
            <stop offset="0.984375" stop-color="#44BA3B"/>
            <stop offset="1" stop-color="#43BA3B"/>
        </linearGradient>
    </defs>
</svg>
