<svg width="60" height="59" viewBox="0 0 60 59" fill="none" xmlns="http://www.w3.org/2000/svg">
<path d="M6.62951 58.025C4.82399 58.025 3.27835 57.3997 1.99259 56.149C0.706841 54.8983 0.0639648 53.3948 0.0639648 51.6385V6.93268C0.0639648 5.17638 0.706841 3.67289 1.99259 2.42219C3.27835 1.17149 4.82399 0.546143 6.62951 0.546143H32.8917V6.93268H6.62951V51.6385H52.5883V26.0923H59.1539V51.6385C59.1539 53.3948 58.511 54.8983 57.2253 56.149C55.9395 57.3997 54.3939 58.025 52.5883 58.025H6.62951ZM9.91229 45.2519H49.3056L36.9952 29.2856L27.1469 42.0587L19.7606 32.4788L9.91229 45.2519ZM46.0228 19.7058V13.3192H39.4573V6.93268H46.0228V0.546143H52.5883V6.93268H59.1539V13.3192H52.5883V19.7058H46.0228Z" fill="#DFDFDF"/>
</svg>
